{"title":"Ultimate Spider-Man Web Warriors 303 Agent Venom WEB-DL x264 Pim","uid":10383083,"size":258693932,"categoryP":"video","categoryS":"tv_shows","magnet":"?xt=urn:btih:e5aef38da92a07359bac2f4a45ec970070484af3&amp;dn=Ultimate+Spider-Man+Web+Warriors+303+Agent+Venom+WEB-DL+x264+Pim&amp;tr=udp%3A%2F%2Ftracker.openbittorrent.com%3A80&amp;tr=udp%3A%2F%2Fopen.demonii.com%3A1337&amp;tr=udp%3A%2F%2Ftracker.coppersurfer.tk%3A6969&amp;tr=udp%3A%2F%2Fexodus.desync.com%3A6969","seeders":1,"leechers":0,"uploader":"shawnmurthy","files":-1,"time":1403105556,"description":"[URL=http://istoreimg.com/i/53a18eb72d15b.html][IMG]http://istoreimg.com/upload/small/2014/06/18/53a18eb72d120.jpg[/IMG][/URL]\n\n[url]http://pimp4003.net/torrents.php?type=tv&amp;id=e5aef38da92a07359bac2f4a45ec970070484af3[/url]\n\nUltimate Spider-Man Web Warriors 303 Agent Venom WEB-DL x264 Pimp4003\n &lt;a href=&quot;\nhttp://www.imdb.com/title/tt1722512&quot; rel=&quot;nofollow&quot; target=&quot;_NEW&quot;&gt;\nhttp://www.imdb.com/title/tt1722512&lt;/a&gt;\n\nWhile being trained by S.H.I.E.L.D., Spider-Man battles evil with a new team of teen colleagues.\n\nStars: Drake Bell, Ogie Banks, Logan Miller | See full cast and crew Â»\n\nVideo\nID                                       : 1\nFormat                                   : AVC\nFormat/Info                              : Advanced Video Codec\nFormat profile                           : &lt;a class=&quot;__cf_email__&quot; href=&quot;/cdn-cgi/l/email-protection&quot; data-cfemail=&quot;f6bb979f98b6bac5d8c6&quot;&gt;[email&amp;#160;protected]&lt;/a&gt;&lt;script cf-hash='f9e31' type=&quot;text/javascript&quot;&gt;\n/* &lt;![CDATA[ */!function(){try{var t=&quot;currentScript&quot;in document?document.currentScript:function(){for(var t=document.getElementsByTagName(&quot;script&quot;),e=t.length;e--;)if(t[e].getAttribute(&quot;cf-hash&quot;))return t[e]}();if(t&amp;&amp;t.previousSibling){var e,r,n,i,c=t.previousSibling,a=c.getAttribute(&quot;data-cfemail&quot;);if(a){for(e=&quot;&quot;,r=parseInt(a.substr(0,2),16),n=2;a.length-n;n+=2)i=parseInt(a.substr(n,2),16)^r,e+=String.fromCharCode(i);e=document.createTextNode(e),c.parentNode.replaceChild(e,c)}}}catch(u){}}();/* ]]&gt; */&lt;/script&gt;\nFormat settings, CABAC                   : Yes\nFormat settings, ReFrames                : 4 frames\nCodec ID                                 : avc1\nCodec ID/Info                            : Advanced Video Coding\nDuration                                 : 21mn 9s\nBit rate                                 : 1 466 Kbps\nWidth                                    : 720 pixels\nHeight                                   : 576 pixels\nDisplay aspect ratio                     : 16:9\nFrame rate mode                          : Variable\nFrame rate                               : 24.732 fps\nMinimum frame rate                       : 14.286 fps\nMaximum frame rate                       : 50.000 fps\nStandard                                 : PAL\nColor space                              : YUV\nChroma subsampling                       : 4:2:0\nBit depth                                : 8 bits\nScan type                                : Progressive\nBits/(Pixel*Frame)                       : 0.143\nStream size                              : 222 MiB (90%)\nWriting library                          : x264 core 120\nEncoding settings                        : cabac=1 / ref=1 / deblock=1:0:0 / analyse=0x1:0x111 / me=hex / subme=2 / psy=1 / psy_rd=1.00:0.00 / mixed_ref=0 / me_range=16 / chroma_me=1 / trellis=0 / 8x8dct=0 / cqm=0 / deadzone=21,11 / fast_pskip=1 / chroma_qp_offset=0 / threads=6 / sliced_threads=0 / nr=0 / decimate=1 / interlaced=0 / bluray_compat=0 / constrained_intra=0 / bframes=3 / b_pyramid=2 / b_adapt=1 / b_bias=0 / direct=1 / weightb=1 / open_gop=0 / weightp=1 / keyint=250 / keyint_min=25 / scenecut=40 / intra_refresh=0 / rc_lookahead=10 / rc=crf / mbtree=1 / crf=20.0 / qcomp=0.60 / qpmin=3 / qpmax=69 / qpstep=4 / ip_ratio=1.40 / aq=1:1.00\nEncoded date                             : UTC 2014-06-14 09:37:36\nTagged date                              : UTC 2014-06-14 09:43:55\nColor primaries                          : BT.601 NTSC\nTransfer characteristics                 : BT.709\nMatrix coefficients                      : BT.601\n\nAudio\nID                                       : 2\nFormat                                   : AAC\nFormat/Info                              : Advanced Audio Codec\nFormat profile                           : LC\nCodec ID                                 : 40\nDuration                                 : 21mn 9s\nBit rate mode                            : Variable\nBit rate                                 : 160 Kbps\nMaximum bit rate                         : 206 Kbps\nChannel(s)                               : 2 channels\nChannel positions                        : Front: L R\nSampling rate                            : 48.0 KHz\nCompression mode                         : Lossy\nStream size                              : 24.2 MiB (10%)\nEncoded date                             : UTC 2014-06-14 09:37:36\nTagged date                              : UTC 2014-06-14 09:43:54\n","torrent":{"xt":"urn:btih:e5aef38da92a07359bac2f4a45ec970070484af3","amp;dn":"Ultimate+Spider-Man+Web+Warriors+303+Agent+Venom+WEB-DL+x264+Pim","amp;tr":["udp%3A%2F%2Ftracker.openbittorrent.com%3A80","udp%3A%2F%2Fopen.demonii.com%3A1337","udp%3A%2F%2Ftracker.coppersurfer.tk%3A6969","udp%3A%2F%2Fexodus.desync.com%3A6969"],"infoHash":"e5aef38da92a07359bac2f4a45ec970070484af3","infoHashBuffer":{"type":"Buffer","data":[229,174,243,141,169,42,7,53,155,172,47,74,69,236,151,0,112,72,74,243]},"announce":[],"urlList":[]}}